<?xml version="1.0" encoding="UTF-8"?>
<svg width="151.87mm" height="85.812mm" version="1.1" viewBox="0 0 151.87 85.812" xml:space="preserve" xmlns="http://www.w3.org/2000/svg"><g transform="matrix(.26458 0 0 .26458 208.93 -36.735)"><g transform="matrix(.18898 0 0 .18898 -754.64 -3.2677)" fill="#fff"><path transform="matrix(.13333 0 0 -.13333 0 2666.7)" d="m13219 11205c-113.9 235.9-248 458.9-400 667.2-13.1 18.3-27 36.3-40.9 54.7-939.4 1247.1-2519.8 1946.2-4169.4 1683.5-29.94-4.8-59.76-10-89.49-15.4 148.86 66.9 303.26 124.9 462.13 173.4 1398.9 427.7 2910 49.8 3943.6-986.5l2.2-2.1 1.8-1.9c13.5-12.9 26.7-26.4 39.6-39.9 347.9-359.1 618.3-772.9 807.2-1233.2-174.8-100.7-360.8-200.9-556.7-299.8zm50.2 1823.7c-15.7 16.2-31.8 32.4-48.2 48.4-1102.8 1105.4-2764.6 1579.6-4362 1091.2-753.59-230.4-1399.5-646.5-1902.2-1182.6-386.46-411.9-688.71-895.1-890.63-1419.1-92.93-239.5-164.45-487.9-213.52-742.2-4.64-22.5-8.93-44.9-12.74-67.5-99.09-557.4-90.02-1141 42.51-1721.4 19.82-86.9 42.42-173.8 67.67-260.3 34.29 0.9 66.8 2.5 98.59 3.9 866.4 39.5 1913.6 209.4 3028.5 487.9 386.61 96.7 781.61 206.3 1180 328.1 1000.8 306 1940 662.7 2748 1041.3 129.5 60.3 255.5 121.5 377.8 183.1 296 148.6 570.8 300.2 820.1 452.3 26.5 16 53.8 33.1 83.1 51.7-210.3 660.7-564.3 1237.4-1017 1705.2"/><path transform="matrix(.13333 0 0 -.13333 0 2666.7)" d="m16871 12538c182.1-595.8-769.9-1464.5-2383.5-2314.4 3.5-63.3 5.4-126.7 5.7-190.2 0.7-64.6-0.2-129.3-2.8-193.7-65.5-1804.8-1257.7-3450.5-3081.9-4008.2-1824.2-557.7-3732.8 139.9-4796.8 1599.4-38.14 51.9-75.16 105.4-110.72 159.3-35.12 52.5-69.01 106.1-101.57 160.6-1813-197.8-3087.6-9.9-3269.8 585.9-177.5 580.6 722.43 1420.6 2262.2 2249.5-4.06-32.2-7.75-64.4-11.07-96.4-931.33-576.1-1443.1-1128.1-1321-1527.3 107.03-350 684.87-525.1 1563.2-533.7 71.77-0.7 145.61-0.4 221.04 1.2 71.84 1.7 145.49 4 220.73 7.5 1143.2 52.2 2666.3 333.4 4293.1 830.8 1626.8 497.3 3046.9 1115.6 4023.5 1711.5 64.3 39.1 126.6 78.4 187.1 117.2 63.3 41.2 124.7 82.3 183.9 122.6 723.7 498.7 1104.8 967 997.8 1317.1-122.1 399.2-855.5 570.9-1949.7 527.7-20.7 24.7-41.7 49.2-62.6 73.4 1740.4 173.6 2955.8-19.3 3133.3-599.8"/></g><text x="-788.52496" y="457.89954" fill="#ffffff" font-family="Oswald" font-size="192px" font-weight="bold" letter-spacing="-5.48px" stroke="#000000" stroke-width="4.9134" style="line-height:1.02" xml:space="preserve"><tspan x="-788.52496" y="457.89954" fill="#ffffff" font-family="'Luckiest Guy'" font-weight="normal" letter-spacing="-5.48px" stroke="#000000" stroke-width="4.9134" style="line-height:1.02">COSMO</tspan></text></g></svg>
