<svg id="Layer_1" stroke="#375297" enable-background="new 0 0 512 512" height="512" viewBox="0 0 512 512" width="512" xmlns="http://www.w3.org/2000/svg"><path d="m256 136.243c31.595 0 57.303-25.704 57.303-57.303s-25.708-57.302-57.303-57.302-57.303 25.704-57.303 57.303 25.708 57.302 57.303 57.302zm0-95.592c21.113 0 38.289 17.172 38.289 38.289s-17.176 38.29-38.289 38.29-38.289-17.172-38.289-38.289 17.176-38.29 38.289-38.29zm148.118 176.301c24.041 0 36.622-18.611 36.622-36.99s-12.581-36.99-36.622-36.99h-296.236c-24.041 0-36.622 18.611-36.622 36.99s12.581 36.99 36.622 36.99h85.888v68.472l-79.816 138.252c-8.176 14.155-8.474 29.889-.82 43.147 8.257 14.302 24.262 23.538 40.772 23.538 15.316 0 28.783-8.122 36.955-22.285l65.139-112.817 65.138 112.818c8.172 14.163 21.643 22.285 36.955 22.285 16.515 0 32.519-9.244 40.772-23.546 7.654-13.258 7.356-28.984-.82-43.139l-79.815-138.252v-68.472h85.888zm-103.625 75.767 81.092 140.464c6.095 10.551 3.81 18.944.816 24.126-4.846 8.4-14.616 14.039-24.308 14.039-5.983 0-14.399-2.22-20.495-12.771l-73.368-127.081c-3.396-5.894-13.065-5.894-16.461 0l-73.373 127.082c-6.092 10.559-14.507 12.771-20.491 12.771-9.692 0-19.462-5.639-24.308-14.032-2.994-5.183-5.279-13.575.816-24.142l81.092-140.457c.835-1.439 1.276-3.079 1.276-4.749v-80.524c0-5.252-4.258-9.507-9.507-9.507h-95.395c-12.999 0-17.609-9.685-17.609-17.977s4.61-17.977 17.609-17.977h296.237c12.999 0 17.609 9.685 17.609 17.977s-4.61 17.977-17.609 17.977h-95.395c-5.248 0-9.507 4.254-9.507 9.507v80.524c.003 1.672.444 3.311 1.279 4.75z"/></svg>