<svg width="28" height="28" viewBox="0 0 28 28" fill="none" xmlns="http://www.w3.org/2000/svg">
<path d="M20.9067 7.72333C20.7883 7.43826 20.5617 7.21172 20.2767 7.09333C20.1364 7.03355 19.9858 7.00184 19.8333 7H8.16666C7.85724 7 7.56049 7.12292 7.3417 7.34171C7.12291 7.5605 6.99999 7.85725 6.99999 8.16667C6.99999 8.47609 7.12291 8.77283 7.3417 8.99162C7.56049 9.21042 7.85724 9.33333 8.16666 9.33333H17.0217L7.33832 19.005C7.22897 19.1135 7.14218 19.2425 7.08295 19.3847C7.02372 19.5268 6.99323 19.6793 6.99323 19.8333C6.99323 19.9873 7.02372 20.1398 7.08295 20.282C7.14218 20.4242 7.22897 20.5532 7.33832 20.6617C7.44678 20.771 7.57581 20.8578 7.71798 20.917C7.86015 20.9763 8.01264 21.0068 8.16666 21.0068C8.32067 21.0068 8.47316 20.9763 8.61533 20.917C8.7575 20.8578 8.88653 20.771 8.99499 20.6617L18.6667 10.9783V19.8333C18.6667 20.1428 18.7896 20.4395 19.0084 20.6583C19.2272 20.8771 19.5239 21 19.8333 21C20.1427 21 20.4395 20.8771 20.6583 20.6583C20.8771 20.4395 21 20.1428 21 19.8333V8.16667C20.9981 8.01421 20.9664 7.86359 20.9067 7.72333Z" fill="#1A1A1A"/>
</svg>