<svg width="1280" height="279" viewBox="0 0 1280 279" fill="none" xmlns="http://www.w3.org/2000/svg">
<g opacity="0.18">
<g clip-path="url(#clip0_0_286)">
<path d="M-589.397 427.224C-425.404 338.057 -374.042 432.52 -210.049 343.353C-46.0559 254.187 -97.4178 159.723 66.5281 70.582C230.474 -18.5591 281.883 75.8786 445.876 -13.2882C609.869 -102.455 558.507 -196.918 722.5 -286.085C886.493 -375.252 937.855 -280.789 1101.9 -369.981C1265.94 -459.174 1214.53 -553.611 1378.52 -642.778" stroke="white" stroke-miterlimit="10"/>
<path d="M-794.949 49.1787C-630.956 -39.9881 -579.594 54.4752 -415.601 -34.6916C-251.608 -123.858 -302.97 -218.322 -139.024 -307.463C24.9222 -396.604 76.3313 -302.166 240.324 -391.333C404.317 -480.5 352.955 -574.963 516.949 -664.13C680.942 -753.297 732.304 -658.834 896.344 -748.026C1060.38 -837.219 1008.97 -931.656 1172.97 -1020.82" stroke="white" stroke-miterlimit="10"/>
<path d="M-383.845 805.271C-219.852 716.105 -168.386 810.76 -4.39301 721.593C159.6 632.426 108.134 537.771 272.08 448.63C436.026 359.489 487.539 454.118 651.532 364.952C815.525 275.785 764.059 181.129 928.052 91.9627C1092.04 2.79587 1143.51 97.4512 1307.55 8.25877C1471.59 -80.9337 1420.08 -175.563 1584.07 -264.73" stroke="white" stroke-miterlimit="10"/>
<path d="M-101.145 1325.2C62.8478 1236.04 114.21 1330.5 278.203 1241.33C442.196 1152.17 390.834 1057.7 554.78 968.562C718.726 879.42 770.135 973.858 934.128 884.691C1098.12 795.524 1046.76 701.061 1210.75 611.894C1374.75 522.728 1426.11 617.191 1590.15 527.998C1754.19 438.806 1702.78 344.368 1866.77 255.201" stroke="white" stroke-miterlimit="10"/>
<path d="M-486.569 616.344C-322.576 527.177 -271.214 621.64 -107.221 532.473C56.7722 443.307 5.41036 348.843 169.356 259.702C333.302 170.561 384.711 264.999 548.704 175.832C712.697 86.6651 661.335 -7.79824 825.328 -96.9651C989.321 -186.132 1040.68 -91.6685 1204.72 -180.861C1368.76 -270.053 1317.35 -364.491 1481.35 -453.658" stroke="white" stroke-miterlimit="10"/>
<path d="M-692.121 238.297C-528.128 149.13 -476.766 243.593 -312.773 154.427C-148.78 65.2598 -200.142 -29.2036 -36.196 -118.345C127.75 -207.486 179.159 -113.048 343.152 -202.215C507.145 -291.382 455.783 -385.845 619.776 -475.012C783.769 -564.179 835.131 -469.715 999.171 -558.908C1163.21 -648.1 1111.8 -742.538 1275.8 -831.705" stroke="white" stroke-miterlimit="10"/>
<path d="M-281.016 994.391C-117.023 905.224 -65.6614 999.687 98.3317 910.52C262.325 821.354 210.963 726.89 374.909 637.749C538.855 548.608 590.264 643.046 754.257 553.879C918.25 464.712 866.888 370.249 1030.88 281.082C1194.87 191.915 1246.24 286.378 1410.28 197.186C1574.32 107.993 1522.91 13.5557 1686.9 -75.6111" stroke="white" stroke-miterlimit="10"/>
<path d="M-538.035 521.688C-374.042 432.522 -322.575 527.177 -158.582 438.01C5.41084 348.843 -46.0555 254.188 117.89 165.047C281.836 75.9057 333.35 170.535 497.343 81.3686C661.336 -7.79816 609.87 -102.454 773.863 -191.62C937.856 -280.787 989.322 -186.132 1153.36 -275.324C1317.4 -364.517 1265.89 -459.146 1429.88 -548.313" stroke="white" stroke-miterlimit="10"/>
<path d="M-743.587 143.642C-579.594 54.4748 -528.128 149.13 -364.134 59.9634C-200.141 -29.2034 -251.608 -123.859 -87.6618 -213C76.284 -302.141 127.798 -207.511 291.791 -296.678C455.784 -385.845 404.317 -480.5 568.31 -569.667C732.303 -658.834 783.77 -564.179 947.81 -653.371C1111.85 -742.564 1060.34 -837.193 1224.33 -926.36" stroke="white" stroke-miterlimit="10"/>
<path d="M-332.379 899.925C-168.386 810.758 -117.024 905.221 46.9691 816.055C210.962 726.888 159.6 632.424 323.546 543.283C487.492 454.142 538.901 548.58 702.894 459.413C866.887 370.246 815.525 275.783 979.518 186.616C1143.51 97.4492 1194.87 191.913 1358.91 102.72C1522.95 13.5276 1471.54 -80.9101 1635.54 -170.077" stroke="white" stroke-miterlimit="10"/>
<path d="M-846.311 -45.293C-682.318 -134.46 -630.956 -39.9964 -466.963 -129.163C-302.97 -218.33 -354.332 -312.793 -190.386 -401.935C-26.4401 -491.076 24.969 -396.638 188.962 -485.805C352.955 -574.972 301.593 -669.435 465.586 -758.602C629.579 -847.769 680.941 -753.305 844.981 -842.498C1009.02 -931.69 957.613 -1026.13 1121.61 -1115.29" stroke="white" stroke-miterlimit="10"/>
<path d="M-435.207 710.808C-271.214 621.641 -219.852 716.104 -55.8588 626.937C108.134 537.771 56.7724 443.307 220.718 354.166C384.664 265.025 436.073 359.463 600.066 270.296C764.059 181.129 712.697 86.6656 876.69 -2.50119C1040.68 -91.668 1092.05 2.79532 1256.09 -86.3971C1420.13 -175.59 1368.72 -270.027 1532.71 -359.194" stroke="white" stroke-miterlimit="10"/>
<path d="M-152.508 1230.74C11.4855 1141.58 62.8474 1236.04 226.84 1146.87C390.834 1057.71 339.472 963.242 503.418 874.101C667.363 784.959 718.772 879.397 882.766 790.23C1046.76 701.064 995.397 606.6 1159.39 517.433C1323.38 428.267 1374.74 522.73 1538.78 433.537C1702.83 344.345 1651.42 249.907 1815.41 160.74" stroke="white" stroke-miterlimit="10"/>
<path d="M-640.759 332.762C-476.766 243.595 -425.404 338.058 -261.411 248.891C-97.4177 159.725 -148.78 65.2613 15.1663 -23.8799C179.112 -113.021 230.521 -18.5833 394.514 -107.75C558.507 -196.917 507.145 -291.38 671.138 -380.547C835.132 -469.714 886.493 -375.251 1050.53 -464.443C1214.57 -553.636 1163.16 -648.073 1327.16 -737.24" stroke="white" stroke-miterlimit="10"/>
<path d="M-229.655 1088.85C-65.662 999.687 -14.3001 1094.15 149.693 1004.98C313.686 915.816 262.324 821.353 426.27 732.212C590.216 643.071 641.625 737.508 805.618 648.342C969.611 559.175 918.249 464.712 1082.24 375.545C1246.24 286.378 1297.6 380.841 1461.64 291.649C1625.68 202.456 1574.27 108.019 1738.26 18.8518" stroke="white" stroke-miterlimit="10"/>
<path d="M-563.716 474.455C-399.723 385.288 -348.256 479.944 -184.263 390.777C-20.2703 301.61 -71.7366 206.955 92.2093 117.813C256.155 28.6723 307.669 123.302 471.662 34.1353C635.655 -55.0316 584.188 -149.687 748.181 -238.854C912.175 -328.021 963.641 -233.365 1127.68 -322.558C1291.72 -411.75 1240.21 -506.38 1404.2 -595.547" stroke="white" stroke-miterlimit="10"/>
<path d="M-769.268 96.4111C-605.275 7.24432 -553.913 101.708 -389.92 12.5409C-225.927 -76.626 -277.289 -171.089 -113.343 -260.23C50.6027 -349.372 102.012 -254.934 266.005 -344.101C429.998 -433.268 378.636 -527.731 542.629 -616.898C706.622 -706.064 757.984 -611.601 922.024 -700.794C1086.06 -789.986 1034.66 -884.424 1198.65 -973.591" stroke="white" stroke-miterlimit="10"/>
<path d="M-358.164 852.503C-194.171 763.336 -142.704 857.992 21.2886 768.825C185.282 679.658 133.815 585.002 297.761 495.861C461.707 406.72 513.221 501.35 677.214 412.183C841.207 323.016 789.74 228.361 953.733 139.194C1117.73 50.0273 1169.19 144.683 1333.23 55.4902C1497.27 -33.7023 1445.76 -128.332 1609.75 -217.499" stroke="white" stroke-miterlimit="10"/>
<path d="M-871.992 -92.5254C-707.999 -181.692 -656.637 -87.2289 -492.644 -176.396C-328.651 -265.562 -380.012 -360.026 -216.067 -449.167C-52.1207 -538.308 -0.711654 -443.87 163.281 -533.037C327.274 -622.204 275.912 -716.667 439.906 -805.834C603.899 -895.001 655.261 -800.538 819.301 -889.73C983.341 -978.923 931.932 -1073.36 1095.93 -1162.53" stroke="white" stroke-miterlimit="10"/>
<path d="M-460.888 663.574C-296.895 574.407 -245.533 668.871 -81.5399 579.704C82.4531 490.537 31.0913 396.074 195.037 306.933C358.983 217.791 410.392 312.229 574.385 223.062C738.378 133.896 687.016 39.4322 851.009 -49.7346C1015 -138.901 1066.36 -44.4381 1230.4 -133.631C1394.44 -222.823 1343.04 -317.261 1507.03 -406.428" stroke="white" stroke-miterlimit="10"/>
<path d="M-178.293 1183.32C-14.2997 1094.15 37.1667 1188.8 201.16 1099.64C365.153 1010.47 313.686 915.816 477.632 826.675C641.578 737.534 693.092 832.163 857.085 742.997C1021.08 653.83 969.611 559.174 1133.6 470.008C1297.6 380.841 1349.06 475.496 1513.1 386.304C1677.14 297.111 1625.63 202.481 1789.62 113.315" stroke="white" stroke-miterlimit="10"/>
<path d="M-666.439 285.529C-502.446 196.362 -451.084 290.826 -287.091 201.659C-123.098 112.492 -174.46 18.0289 -10.5144 -71.1123C153.432 -160.253 204.841 -65.8158 368.834 -154.983C532.827 -244.149 481.465 -338.613 645.458 -427.78C809.451 -516.946 860.813 -422.483 1024.85 -511.675C1188.89 -600.868 1137.48 -695.306 1301.48 -784.472" stroke="white" stroke-miterlimit="10"/>
<path d="M-255.335 1041.62C-91.3424 952.456 -39.9805 1046.92 124.013 957.753C288.006 868.586 236.644 774.123 400.59 684.981C564.536 595.84 615.945 690.278 779.938 601.111C943.931 511.944 892.569 417.481 1056.56 328.314C1220.55 239.147 1271.92 333.611 1435.96 244.418C1600 155.226 1548.59 60.7881 1712.58 -28.3787" stroke="white" stroke-miterlimit="10"/>
<path d="M-512.25 569.111C-348.256 479.945 -296.895 574.408 -132.901 485.241C31.0916 396.074 -20.2703 301.611 143.676 212.47C307.621 123.329 359.031 217.766 523.024 128.599C687.017 39.4326 635.655 -55.0307 799.648 -144.197C963.641 -233.364 1015 -138.901 1179.04 -228.093C1343.08 -317.286 1291.67 -411.724 1455.67 -500.89" stroke="white" stroke-miterlimit="10"/>
<path d="M-717.906 190.874C-553.913 101.707 -502.447 196.363 -338.454 107.196C-174.461 18.029 -225.927 -76.6264 -61.9812 -165.768C101.965 -254.909 153.478 -160.279 317.471 -249.446C481.464 -338.613 429.998 -433.268 593.991 -522.435C757.984 -611.602 809.45 -516.946 973.491 -606.139C1137.53 -695.331 1086.02 -789.961 1250.01 -879.128" stroke="white" stroke-miterlimit="10"/>
<path d="M-306.698 947.158C-142.704 857.991 -91.3425 952.455 72.6505 863.288C236.644 774.121 185.282 679.658 349.228 590.517C513.173 501.375 564.583 595.813 728.576 506.646C892.569 417.48 841.207 323.016 1005.2 233.849C1169.19 144.683 1220.55 239.146 1384.6 149.953C1548.64 60.761 1497.23 -33.6767 1661.22 -122.844" stroke="white" stroke-miterlimit="10"/>
<path d="M-820.63 1.94727C-656.637 -87.2195 -605.275 7.2438 -441.282 -81.923C-277.289 -171.09 -328.651 -265.553 -164.705 -354.694C-0.758921 -443.835 50.6502 -349.398 214.643 -438.565C378.636 -527.731 327.274 -622.195 491.267 -711.362C655.26 -800.528 706.622 -706.065 870.663 -795.257C1034.7 -884.45 983.294 -978.888 1147.29 -1068.05" stroke="white" stroke-miterlimit="10"/>
<path d="M-409.526 758.04C-245.533 668.873 -194.171 763.337 -30.1781 674.17C133.815 585.003 82.4531 490.54 246.399 401.398C410.345 312.257 461.754 406.695 625.747 317.528C789.74 228.361 738.378 133.898 902.371 44.7312C1066.36 -44.4356 1117.73 50.0277 1281.77 -39.1647C1445.81 -128.357 1394.4 -222.795 1558.39 -311.962" stroke="white" stroke-miterlimit="10"/>
<path d="M-126.827 1277.97C37.1662 1188.81 88.5281 1283.27 252.521 1194.1C416.514 1104.94 365.152 1010.47 529.098 921.331C693.044 832.19 744.453 926.628 908.446 837.461C1072.44 748.294 1021.08 653.831 1185.07 564.664C1349.06 475.497 1400.43 569.96 1564.47 480.768C1728.51 391.575 1677.1 297.138 1841.09 207.971" stroke="white" stroke-miterlimit="10"/>
<path d="M-615.078 379.993C-451.085 290.826 -399.723 385.29 -235.73 296.123C-71.737 206.956 -123.099 112.493 40.847 23.3516C204.793 -65.7896 256.202 28.6481 420.195 -60.5187C584.188 -149.686 532.826 -244.149 696.819 -333.316C860.812 -422.482 912.174 -328.019 1076.21 -417.212C1240.25 -506.404 1188.85 -600.842 1352.84 -690.009" stroke="white" stroke-miterlimit="10"/>
<path d="M-203.974 1136.09C-39.9808 1046.92 11.4855 1141.57 175.479 1052.41C339.472 963.241 288.005 868.585 451.951 779.444C615.897 690.303 667.411 784.933 831.404 695.766C995.397 606.599 943.93 511.944 1107.92 422.777C1271.92 333.61 1323.38 428.266 1487.42 339.073C1651.46 249.881 1599.95 155.251 1763.94 66.0842" stroke="white" stroke-miterlimit="10"/>
</g>
</g>
<defs>
<clipPath id="clip0_0_286">
<rect y="-134.344" width="1280" height="413" fill="white"/>
</clipPath>
</defs>
</svg>