<svg width="328" height="344" viewBox="0 0 328 344" fill="none" xmlns="http://www.w3.org/2000/svg">
<g opacity="0.18">
<g clip-path="url(#clip0_0_625)">
<path d="M-764.397 492.223C-600.404 403.056 -549.042 497.519 -385.049 408.352C-221.056 319.186 -272.418 224.722 -108.472 135.581C55.474 46.4399 106.883 140.878 270.876 51.7108C434.869 -37.456 383.507 -131.919 547.5 -221.086C711.493 -310.253 762.855 -215.79 926.896 -304.982C1090.94 -394.175 1039.53 -488.612 1203.52 -577.779" stroke="white" stroke-miterlimit="10"/>
<path d="M-969.949 114.18C-805.956 25.0129 -754.594 119.476 -590.601 30.3094C-426.608 -58.8574 -477.97 -153.321 -314.024 -242.462C-150.078 -331.603 -98.6687 -237.165 65.3244 -326.332C229.317 -415.499 177.955 -509.962 341.949 -599.129C505.942 -688.296 557.304 -593.833 721.344 -683.025C885.384 -772.218 833.975 -866.655 997.968 -955.822" stroke="white" stroke-miterlimit="10"/>
<path d="M-558.846 870.271C-394.853 781.105 -343.386 875.76 -179.393 786.593C-15.4002 697.426 -66.8665 602.771 97.0794 513.63C261.025 424.489 312.539 519.118 476.532 429.952C640.525 340.785 589.058 246.129 753.052 156.963C917.045 67.7959 968.511 162.451 1132.55 73.2588C1296.59 -15.9337 1245.08 -110.563 1409.07 -199.73" stroke="white" stroke-miterlimit="10"/>
<path d="M-276.146 1390.2C-112.152 1301.04 -60.7905 1395.5 103.203 1306.33C267.196 1217.17 215.834 1122.7 379.78 1033.56C543.725 944.42 595.135 1038.86 759.128 949.691C923.121 860.524 871.759 766.061 1035.75 676.894C1199.74 587.728 1251.11 682.191 1415.15 592.998C1579.19 503.806 1527.78 409.368 1691.77 320.201" stroke="white" stroke-miterlimit="10"/>
<path d="M-1072.78 -74.9492C-908.784 -164.116 -857.318 -69.4606 -693.325 -158.627C-529.331 -247.794 -580.798 -342.45 -416.852 -431.591C-252.906 -520.732 -201.393 -426.102 -37.3994 -515.269C126.594 -604.436 75.1272 -699.091 239.12 -788.258C403.113 -877.425 454.58 -782.769 618.62 -871.962C782.66 -961.154 731.147 -1055.78 895.14 -1144.95" stroke="white" stroke-miterlimit="10"/>
<path d="M-661.569 681.344C-497.576 592.177 -446.214 686.64 -282.221 597.473C-118.228 508.307 -169.59 413.843 -5.64376 324.702C158.302 235.561 209.711 329.999 373.704 240.832C537.697 151.665 486.335 57.2018 650.328 -31.9651C814.321 -121.132 865.683 -26.6685 1029.72 -115.861C1193.76 -205.053 1142.35 -299.491 1306.35 -388.658" stroke="white" stroke-miterlimit="10"/>
<path d="M-867.121 303.297C-703.128 214.13 -651.766 308.593 -487.773 219.427C-323.78 130.26 -375.142 35.7964 -211.196 -53.3447C-47.2503 -142.486 4.15883 -48.0482 168.152 -137.215C332.145 -226.382 280.783 -320.845 444.776 -410.012C608.769 -499.179 660.131 -404.715 824.171 -493.908C988.212 -583.1 936.802 -677.538 1100.8 -766.705" stroke="white" stroke-miterlimit="10"/>
<path d="M-456.017 1059.39C-292.024 970.224 -240.662 1064.69 -76.6686 975.52C87.3245 886.354 35.9626 791.89 199.908 702.749C363.854 613.608 415.263 708.046 579.257 618.879C743.25 529.712 691.888 435.249 855.881 346.082C1019.87 256.915 1071.24 351.378 1235.28 262.186C1399.32 172.993 1347.91 78.5557 1511.9 -10.6111" stroke="white" stroke-miterlimit="10"/>
<path d="M-713.035 586.688C-549.042 497.521 -497.575 592.176 -333.582 503.009C-169.589 413.842 -221.055 319.187 -57.1096 230.046C106.836 140.905 158.35 235.534 322.343 146.368C486.336 57.2009 434.87 -37.4545 598.863 -126.621C762.856 -215.788 814.322 -121.133 978.362 -210.325C1142.4 -299.518 1090.89 -394.147 1254.88 -483.314" stroke="white" stroke-miterlimit="10"/>
<path d="M-918.587 208.641C-754.594 119.474 -703.128 214.129 -539.134 124.962C-375.141 35.7956 -426.608 -58.8598 -262.662 -148.001C-98.716 -237.142 -47.2024 -142.512 116.791 -231.679C280.784 -320.846 229.317 -415.501 393.31 -504.668C557.303 -593.835 608.77 -499.18 772.81 -588.372C936.85 -677.565 885.337 -772.194 1049.33 -861.361" stroke="white" stroke-miterlimit="10"/>
<path d="M-507.379 964.926C-343.386 875.759 -292.024 970.222 -128.031 881.056C35.9622 791.889 -15.3997 697.425 148.546 608.284C312.492 519.143 363.901 613.581 527.894 524.414C691.887 435.247 640.525 340.784 804.518 251.617C968.511 162.45 1019.87 256.913 1183.91 167.721C1347.95 78.5285 1296.54 -15.9091 1460.54 -105.076" stroke="white" stroke-miterlimit="10"/>
<path d="M-1021.31 19.707C-857.318 -69.4598 -805.956 25.0036 -641.963 -64.1632C-477.97 -153.33 -529.332 -247.793 -365.386 -336.935C-201.44 -426.076 -150.031 -331.638 13.9621 -420.805C177.955 -509.972 126.593 -604.435 290.586 -693.602C454.579 -782.769 505.941 -688.305 669.981 -777.498C834.022 -866.69 782.613 -961.128 946.606 -1050.29" stroke="white" stroke-miterlimit="10"/>
<path d="M-610.207 775.809C-446.214 686.642 -394.852 781.105 -230.859 691.938C-66.8659 602.772 -118.228 508.308 45.7181 419.167C209.664 330.026 261.073 424.464 425.066 335.297C589.059 246.13 537.697 151.667 701.69 62.4998C865.683 -26.667 917.045 67.7963 1081.09 -21.3962C1245.13 -110.589 1193.72 -205.026 1357.71 -294.193" stroke="white" stroke-miterlimit="10"/>
<path d="M-327.508 1295.74C-163.515 1206.58 -112.153 1301.04 51.8405 1211.87C215.834 1122.71 164.472 1028.24 328.418 939.101C492.363 849.959 543.772 944.397 707.766 855.23C871.759 766.064 820.397 671.6 984.39 582.433C1148.38 493.267 1199.74 587.73 1363.78 498.537C1527.83 409.345 1476.42 314.907 1640.41 225.74" stroke="white" stroke-miterlimit="10"/>
<path d="M-815.759 397.762C-651.766 308.595 -600.404 403.058 -436.411 313.891C-272.418 224.725 -323.779 130.261 -159.834 41.1201C4.11229 -48.021 55.5214 46.4167 219.514 -42.7502C383.508 -131.917 332.146 -226.38 496.139 -315.547C660.132 -404.714 711.494 -310.251 875.534 -399.443C1039.57 -488.636 988.165 -583.073 1152.16 -672.24" stroke="white" stroke-miterlimit="10"/>
<path d="M-404.655 1153.85C-240.662 1064.69 -189.3 1159.15 -25.307 1069.98C138.686 980.816 87.3242 886.353 251.27 797.212C415.216 708.071 466.625 802.508 630.618 713.342C794.611 624.175 743.249 529.712 907.242 440.545C1071.24 351.378 1122.6 445.841 1286.64 356.649C1450.68 267.456 1399.27 173.019 1563.26 83.8518" stroke="white" stroke-miterlimit="10"/>
<path d="M-738.716 539.455C-574.723 450.288 -523.257 544.944 -359.263 455.777C-195.27 366.61 -246.737 271.955 -82.7909 182.813C81.155 93.6723 132.669 188.302 296.662 99.1353C460.655 9.96844 409.188 -84.6869 573.181 -173.854C737.174 -263.021 788.641 -168.365 952.681 -257.558C1116.72 -346.75 1065.21 -441.38 1229.2 -530.547" stroke="white" stroke-miterlimit="10"/>
<path d="M-944.269 161.41C-780.275 72.2433 -728.914 166.707 -564.921 77.5399C-400.927 -11.6269 -452.289 -106.09 -288.343 -195.231C-124.398 -284.373 -72.9885 -189.935 91.0046 -279.102C254.998 -368.269 203.636 -462.732 367.629 -551.899C531.622 -641.065 582.984 -546.602 747.024 -635.795C911.064 -724.987 859.655 -819.425 1023.65 -908.592" stroke="white" stroke-miterlimit="10"/>
<path d="M-533.164 917.504C-369.171 828.337 -317.705 922.992 -153.712 833.826C10.2814 744.659 -41.1849 650.003 122.761 560.862C286.707 471.721 338.22 566.351 502.213 477.184C666.207 388.017 614.74 293.362 778.733 204.195C942.726 115.028 994.193 209.684 1158.23 120.491C1322.27 31.2987 1270.76 -63.331 1434.75 -152.498" stroke="white" stroke-miterlimit="10"/>
<path d="M-1046.99 -27.5254C-882.999 -116.692 -831.637 -22.2289 -667.644 -111.396C-503.65 -200.562 -555.012 -295.026 -391.066 -384.167C-227.121 -473.308 -175.712 -378.87 -11.7185 -468.037C152.275 -557.204 100.913 -651.667 264.906 -740.834C428.899 -830.001 480.261 -735.538 644.301 -824.73C808.341 -913.923 756.932 -1008.36 920.925 -1097.53" stroke="white" stroke-miterlimit="10"/>
<path d="M-635.888 728.574C-471.895 639.407 -420.533 733.871 -256.54 644.704C-92.5466 555.537 -143.908 461.074 20.0374 371.933C183.983 282.791 235.392 377.229 399.385 288.062C563.378 198.896 512.017 104.432 676.01 15.2654C840.003 -73.9014 891.365 20.5619 1055.4 -68.6305C1219.45 -157.823 1168.04 -252.261 1332.03 -341.428" stroke="white" stroke-miterlimit="10"/>
<path d="M-353.293 1248.32C-189.3 1159.15 -137.834 1253.8 26.1595 1164.64C190.153 1075.47 138.686 980.816 302.632 891.675C466.578 802.534 518.091 897.163 682.085 807.997C846.078 718.83 794.611 624.174 958.604 535.008C1122.6 445.841 1174.06 540.496 1338.1 451.304C1502.14 362.111 1450.63 267.481 1614.62 178.315" stroke="white" stroke-miterlimit="10"/>
<path d="M-841.44 350.529C-677.447 261.362 -626.085 355.826 -462.092 266.659C-298.098 177.492 -349.46 83.0289 -185.514 -6.1123C-21.5686 -95.2535 29.8405 -0.815768 193.834 -89.9826C357.827 -179.149 306.465 -273.613 470.458 -362.78C634.451 -451.946 685.813 -357.483 849.853 -446.675C1013.89 -535.868 962.484 -630.306 1126.48 -719.472" stroke="white" stroke-miterlimit="10"/>
<path d="M-430.336 1106.62C-266.343 1017.46 -214.981 1111.92 -50.9879 1022.75C113.005 933.586 61.6433 839.123 225.589 749.981C389.535 660.84 440.944 755.278 604.937 666.111C768.93 576.944 717.568 482.481 881.561 393.314C1045.55 304.147 1096.92 398.611 1260.96 309.418C1425 220.226 1373.59 125.788 1537.58 36.6213" stroke="white" stroke-miterlimit="10"/>
<path d="M-687.25 634.111C-523.256 544.945 -471.895 639.408 -307.901 550.241C-143.908 461.074 -195.27 366.611 -31.3244 277.47C132.621 188.329 184.031 282.766 348.024 193.599C512.017 104.433 460.655 9.96934 624.648 -79.1975C788.641 -168.364 840.003 -73.901 1004.04 -163.093C1168.08 -252.286 1116.67 -346.724 1280.67 -435.89" stroke="white" stroke-miterlimit="10"/>
<path d="M-892.906 255.875C-728.913 166.708 -677.447 261.364 -513.454 172.197C-349.461 83.03 -400.927 -11.6254 -236.981 -100.767C-73.0353 -189.908 -21.5218 -95.278 142.471 -184.445C306.464 -273.612 254.998 -368.267 418.991 -457.434C582.984 -546.601 634.45 -451.945 798.491 -541.138C962.531 -630.33 911.017 -724.96 1075.01 -814.127" stroke="white" stroke-miterlimit="10"/>
<path d="M-481.698 1012.16C-317.704 922.991 -266.343 1017.45 -102.349 928.288C61.6436 839.121 10.2817 744.658 174.228 655.517C338.173 566.375 389.583 660.813 553.576 571.646C717.569 482.48 666.207 388.016 830.2 298.849C994.193 209.683 1045.55 304.146 1209.6 214.953C1373.64 125.761 1322.23 31.3233 1486.22 -57.8435" stroke="white" stroke-miterlimit="10"/>
<path d="M-995.63 66.9473C-831.637 -22.2195 -780.275 72.2438 -616.282 -16.923C-452.289 -106.09 -503.651 -200.553 -339.705 -289.694C-175.759 -378.835 -124.35 -284.398 39.6432 -373.565C203.636 -462.731 152.274 -557.195 316.267 -646.362C480.26 -735.528 531.622 -641.065 695.663 -730.257C859.703 -819.45 808.294 -913.888 972.287 -1003.05" stroke="white" stroke-miterlimit="10"/>
<path d="M-584.526 823.039C-420.533 733.872 -369.171 828.336 -205.178 739.169C-41.1853 650.002 -92.5472 555.539 71.3987 466.397C235.345 377.256 286.754 471.694 450.747 382.527C614.74 293.36 563.378 198.897 727.371 109.73C891.364 20.5634 942.726 115.027 1106.77 25.8343C1270.81 -63.3582 1219.4 -157.796 1383.39 -246.963" stroke="white" stroke-miterlimit="10"/>
<path d="M-301.827 1342.97C-137.834 1253.81 -86.4722 1348.27 77.5209 1259.1C241.514 1169.94 190.152 1075.47 354.098 986.331C518.044 897.19 569.453 991.628 733.446 902.461C897.439 813.294 846.077 718.831 1010.07 629.664C1174.06 540.497 1225.43 634.96 1389.47 545.768C1553.51 456.575 1502.1 362.138 1666.09 272.971" stroke="white" stroke-miterlimit="10"/>
<path d="M-790.078 444.992C-626.085 355.825 -574.723 450.289 -410.73 361.122C-246.737 271.955 -298.099 177.492 -134.153 88.3506C29.7928 -0.790567 81.2019 93.6471 245.195 4.48031C409.188 -84.6865 357.826 -179.15 521.819 -268.317C685.812 -357.483 737.174 -263.02 901.214 -352.213C1065.25 -441.405 1013.85 -535.843 1177.84 -625.01" stroke="white" stroke-miterlimit="10"/>
<path d="M-378.974 1201.09C-214.981 1111.92 -163.514 1206.57 0.478569 1117.41C164.472 1028.24 113.005 933.585 276.951 844.444C440.897 755.303 492.411 849.933 656.404 760.766C820.397 671.599 768.93 576.944 932.923 487.777C1096.92 398.61 1148.38 493.266 1312.42 404.073C1476.46 314.881 1424.95 220.251 1588.94 131.084" stroke="white" stroke-miterlimit="10"/>
</g>
</g>
<defs>
<clipPath id="clip0_0_625">
<rect x="-175" y="-69.3438" width="1280" height="413" fill="white"/>
</clipPath>
</defs>
</svg>