<?xml version="1.0" encoding="UTF-8"?>
<svg version="1.1" viewBox="0 0 682.67 682.67" xml:space="preserve" xmlns="http://www.w3.org/2000/svg"><defs><clipPath id="a"><path d="m0 512h512v-512h-512z"/></clipPath></defs><g transform="matrix(1.3333 0 0 -1.3333 0 682.67)"><g clip-path="url(#a)" fill="none" stroke="#fff"><g transform="translate(452,444)"><path d="m0 0h-392c-22.091 0-40-17.909-40-40v-39.446l212.13-157.78c14.17-10.54 33.576-10.54 47.746 0l212.13 157.78v39.446c0 22.091-17.909 40-40 40z" fill="none" stroke="#fff" stroke-miterlimit="10" stroke-width="40"/></g><g transform="translate(472 274.9)"><path d="m0 0v-166.9c0-11.027-8.972-20-20-20h-392c-11.028 0-20 8.973-20 20v166.9l-40 29.752v-196.65c0-33.084 26.916-60 60-60h392c33.084 0 60 26.916 60 60v196.65z" fill="#fff" stroke="#faffff"/></g></g></g></svg>