<svg width="21" height="17" viewBox="0 0 21 17" fill="none" xmlns="http://www.w3.org/2000/svg">
<path d="M13.79 6.6025L11.01 9.3825C10.8435 9.33824 10.6722 9.31473 10.5 9.3125C9.96957 9.3125 9.46086 9.52321 9.08579 9.89829C8.71071 10.2734 8.5 10.7821 8.5 11.3125C8.50223 11.4847 8.52574 11.656 8.57 11.8225L7.79 12.6025C7.69627 12.6955 7.62188 12.8061 7.57111 12.9279C7.52034 13.0498 7.4942 13.1805 7.4942 13.3125C7.4942 13.4445 7.52034 13.5752 7.57111 13.6971C7.62188 13.8189 7.69627 13.9295 7.79 14.0225C7.88296 14.1162 7.99356 14.1906 8.11542 14.2414C8.23728 14.2922 8.36799 14.3183 8.5 14.3183C8.63201 14.3183 8.76272 14.2922 8.88458 14.2414C9.00644 14.1906 9.11704 14.1162 9.21 14.0225L9.99 13.2425C10.1565 13.2868 10.3278 13.3103 10.5 13.3125C11.0304 13.3125 11.5391 13.1018 11.9142 12.7267C12.2893 12.3516 12.5 11.8429 12.5 11.3125C12.4978 11.1403 12.4743 10.969 12.43 10.8025L15.21 8.0225C15.3983 7.8342 15.5041 7.5788 15.5041 7.3125C15.5041 7.0462 15.3983 6.7908 15.21 6.6025C15.0217 6.4142 14.7663 6.30841 14.5 6.30841C14.2337 6.30841 13.9783 6.4142 13.79 6.6025ZM10.5 0.3125C9.18678 0.3125 7.88642 0.571158 6.67317 1.0737C5.45991 1.57625 4.35752 2.31285 3.42893 3.24143C1.55357 5.1168 0.5 7.66034 0.5 10.3125C0.495076 12.2931 1.08372 14.2297 2.19 15.8725C2.33852 16.0926 2.56841 16.2447 2.82908 16.2954C3.08976 16.346 3.35987 16.291 3.58 16.1425C3.80013 15.994 3.95224 15.7641 4.00288 15.5034C4.05351 15.2427 3.99852 14.9726 3.85 14.7525C3.04452 13.548 2.58128 12.1474 2.50975 10.7002C2.43823 9.25301 2.7611 7.81355 3.44389 6.53553C4.12667 5.25751 5.14375 4.18893 6.3865 3.44389C7.62925 2.69884 9.05102 2.30531 10.5 2.30531C11.949 2.30531 13.3707 2.69884 14.6135 3.44389C15.8563 4.18893 16.8733 5.25751 17.5561 6.53553C18.2389 7.81355 18.5618 9.25301 18.4902 10.7002C18.4187 12.1474 17.9555 13.548 17.15 14.7525C17.0763 14.8614 17.0248 14.9839 16.9985 15.1127C16.9722 15.2416 16.9715 15.3744 16.9966 15.5035C17.0217 15.6326 17.072 15.7555 17.1447 15.8652C17.2173 15.9748 17.3109 16.0691 17.42 16.1425C17.5855 16.2537 17.7806 16.3129 17.98 16.3125C18.1438 16.3127 18.3052 16.2728 18.4499 16.196C18.5946 16.1193 18.7183 16.0082 18.81 15.8725C19.9163 14.2297 20.5049 12.2931 20.5 10.3125C20.5 7.66034 19.4464 5.1168 17.5711 3.24143C15.6957 1.36607 13.1522 0.3125 10.5 0.3125Z" fill="#375297"/>
</svg>
