<svg width="27" height="27" viewBox="0 0 27 27" fill="none" xmlns="http://www.w3.org/2000/svg">
<g clip-path="url(#clip0_114_406)">
<path d="M1.26172 26.914H15.0748C15.4955 26.914 15.8365 26.573 15.8365 26.1523V24.5273C15.8365 23.5343 15.1995 22.6875 14.313 22.373V21.3818C14.313 20.176 13.3319 19.1951 12.1261 19.1951H4.21039C3.00454 19.1951 2.02343 20.176 2.02343 21.3818V22.373C1.13695 22.6875 0.5 23.5343 0.5 24.5273V26.1523C0.5 26.573 0.840987 26.914 1.26172 26.914ZM4.21039 20.7185H12.1261C12.4919 20.7185 12.7896 21.016 12.7896 21.3818V22.2421H3.54706V21.3818C3.54706 21.016 3.84461 20.7185 4.21039 20.7185ZM2.02343 24.5273C2.02343 24.1071 2.36521 23.7656 2.78515 23.7656H13.5511C13.9713 23.7656 14.313 24.1071 14.313 24.5273V25.3906H2.02343V24.5273Z" fill="#375297"/>
<path d="M9.27438 16.772C10.03 17.7755 11.4649 17.9834 12.4746 17.2233C13.147 16.717 13.4599 15.9085 13.3682 15.1273C14.0232 15.0159 14.6562 14.8336 15.258 14.5878L22.39 24.0606C23.1457 25.0648 24.5809 25.2717 25.5902 24.5119C26.5967 23.754 26.7992 22.3184 26.0413 21.3117L18.9095 11.8389C19.3118 11.3285 19.6619 10.7709 19.9501 10.1724C20.6842 10.4803 21.5465 10.3932 22.2115 9.89254C23.2181 9.13459 23.4207 7.69903 22.6627 6.69234L18.9974 1.8239C18.2394 0.817208 16.8039 0.614877 15.7972 1.37282C15.1247 1.87905 14.8119 2.68738 14.9035 3.46853C12.0332 3.9575 9.58601 5.7997 8.32204 8.42266C7.58929 8.1154 6.73077 8.19871 6.0603 8.70335C5.05123 9.46308 4.84929 10.8945 5.60902 11.9035L9.27438 16.772ZM17.8508 12.9658L18.868 14.3168L17.6509 15.2331L16.6337 13.8822C17.0647 13.6119 17.4718 13.3052 17.8508 12.9658ZM24.6737 23.2948C24.3381 23.5475 23.8597 23.48 23.6069 23.1444L18.5671 16.4502L19.7843 15.534L24.8241 22.228C25.0768 22.5636 25.0092 23.0421 24.6737 23.2948ZM16.7136 2.58998C17.0502 2.33647 17.5285 2.4059 17.7804 2.74034L21.4456 7.60878C21.6983 7.94421 21.6308 8.42286 21.2952 8.67538C20.959 8.92869 20.4819 8.86144 20.2286 8.52502L16.5632 3.65658C16.3105 3.32095 16.378 2.8425 16.7136 2.58998ZM15.599 4.90865C15.9289 5.34704 18.4231 8.6601 18.7585 9.10543C17.7189 11.6326 15.3897 13.3867 12.6729 13.6872L9.51341 9.49025C10.5542 6.96013 12.8796 5.20957 15.599 4.90865ZM6.97674 9.9205C7.31217 9.66779 7.78963 9.73384 8.04334 10.0709L11.7087 14.9393C11.7087 14.9393 11.7087 14.9393 11.7087 14.9395C11.9612 15.2749 11.8938 15.7534 11.5583 16.0061C11.2227 16.2586 10.7443 16.1912 10.4915 15.8557L6.82618 10.9873C6.57307 10.6509 6.64032 10.1738 6.97674 9.9205Z" fill="#375297"/>
</g>
<defs>
<clipPath id="clip0_114_406">
<rect width="26" height="26" fill="white" transform="translate(0.5 0.914062)"/>
</clipPath>
</defs>
</svg>
