<svg width="23" height="29" viewBox="0 0 23 29" fill="none" xmlns="http://www.w3.org/2000/svg">
<path d="M19.9423 14.1874C18.9945 12.7072 17.905 11.5692 16.7647 10.835C17.2361 10.4663 17.5399 9.89307 17.5399 9.24987C17.5399 8.50283 17.1302 7.85006 16.5237 7.5028L19.0941 2.51526L18.8186 2.16569C16.7813 -0.419596 14.9719 0.281262 13.5179 0.844532C12.8422 1.10627 12.2039 1.35354 11.5586 1.29812L11.4995 1.29305L11.4403 1.29812C10.7929 1.35371 10.1813 1.10454 9.53343 0.840784C8.15772 0.280801 6.44565 -0.416194 4.41106 2.16569L4.14597 2.50205L6.50008 7.48844C5.8799 7.83195 5.45895 8.49262 5.45895 9.24987C5.45895 9.89307 5.76284 10.4663 6.23425 10.835C5.0941 11.5691 4.00475 12.7071 3.0572 14.187C1.45597 16.6878 0.5 19.7607 0.5 22.4071C0.5 24.2685 0.981213 25.8414 1.89157 26.9559C2.95306 28.2553 4.5265 28.9142 6.56824 28.9142H16.4323C18.4738 28.9142 20.0471 28.2555 21.1085 26.9563C22.0188 25.8419 22.5 24.2692 22.5 22.4081C22.4999 19.7616 21.5438 16.6885 19.9423 14.1874ZM9.01156 2.12256C9.73185 2.41573 10.5461 2.74736 11.4995 2.6815C12.4404 2.7462 13.2774 2.42184 14.0178 2.13496C15.3133 1.6331 16.1993 1.29005 17.4495 2.68542L15.1037 7.2372H7.91183L5.76837 2.6969C6.99687 1.30262 7.77575 1.61943 9.01156 2.12256ZM7.47329 9.87865C7.12563 9.87865 6.84279 9.59661 6.84279 9.24987C6.84279 8.90907 7.13151 8.6211 7.47329 8.6211H15.5256C15.8673 8.6211 16.156 8.90907 16.156 9.24987C16.156 9.59661 15.8732 9.87865 15.5256 9.87865H13.8021H9.19666H7.47329ZM20.0367 26.0807C19.2509 27.0425 18.0382 27.5303 16.4323 27.5303H6.56824C2.69663 27.5303 1.88396 24.7442 1.88396 22.4071C1.88396 20.05 2.78013 17.1862 4.22267 14.9332C5.71636 12.6004 7.52929 11.2625 9.19672 11.2625H13.8022C17.5001 11.2625 21.116 17.6445 21.116 22.4081C21.116 23.9464 20.7428 25.2164 20.0367 26.0807ZM10.1635 18.0258C10.1635 18.7329 10.4606 18.8896 11.6413 19.1378C12.6678 19.3536 14.2192 19.6796 14.2192 21.6055C14.2192 22.7558 13.357 23.7256 12.1914 24.0057V25.2702H10.8075V24.0057C9.64184 23.7257 8.77963 22.7558 8.77963 21.6055H10.1635C10.1635 22.2109 10.7628 22.7034 11.4995 22.7034C12.236 22.7034 12.8353 22.2109 12.8353 21.6055C12.8353 20.8974 12.5381 20.7404 11.3567 20.4921C10.3305 20.2764 8.77969 19.9504 8.77969 18.0258C8.77969 16.8755 9.6419 15.9057 10.8075 15.6256V14.3611H12.1914V15.6256C13.357 15.9057 14.2192 16.8755 14.2192 18.0258H12.8353C12.8353 17.4204 12.236 16.9279 11.4995 16.9279C10.7628 16.9279 10.1635 17.4205 10.1635 18.0258Z" fill="#375297"/>
</svg>
