<svg width="25" height="25" viewBox="0 0 25 25" fill="none" xmlns="http://www.w3.org/2000/svg">
<path d="M19.5 2.3125H5.5C4.70435 2.3125 3.94129 2.62857 3.37868 3.19118C2.81607 3.75379 2.5 4.51685 2.5 5.3125V15.3125C2.5 16.1081 2.81607 16.8712 3.37868 17.4338C3.94129 17.9964 4.70435 18.3125 5.5 18.3125H8.5V20.3125H5.5C5.23478 20.3125 4.98043 20.4179 4.79289 20.6054C4.60536 20.7929 4.5 21.0473 4.5 21.3125C4.5 21.5777 4.60536 21.8321 4.79289 22.0196C4.98043 22.2071 5.23478 22.3125 5.5 22.3125H19.5C19.7652 22.3125 20.0196 22.2071 20.2071 22.0196C20.3946 21.8321 20.5 21.5777 20.5 21.3125C20.5 21.0473 20.3946 20.7929 20.2071 20.6054C20.0196 20.4179 19.7652 20.3125 19.5 20.3125H16.5V18.3125H19.5C20.2956 18.3125 21.0587 17.9964 21.6213 17.4338C22.1839 16.8712 22.5 16.1081 22.5 15.3125V5.3125C22.5 4.51685 22.1839 3.75379 21.6213 3.19118C21.0587 2.62857 20.2956 2.3125 19.5 2.3125ZM14.5 20.3125H10.5V18.3125H14.5V20.3125ZM20.5 15.3125C20.5 15.5777 20.3946 15.8321 20.2071 16.0196C20.0196 16.2071 19.7652 16.3125 19.5 16.3125H5.5C5.23478 16.3125 4.98043 16.2071 4.79289 16.0196C4.60536 15.8321 4.5 15.5777 4.5 15.3125V14.3125H20.5V15.3125ZM20.5 12.3125H4.5V5.3125C4.5 5.04728 4.60536 4.79293 4.79289 4.60539C4.98043 4.41786 5.23478 4.3125 5.5 4.3125H19.5C19.7652 4.3125 20.0196 4.41786 20.2071 4.60539C20.3946 4.79293 20.5 5.04728 20.5 5.3125V12.3125Z" fill="#375297"/>
</svg>
