<svg width="25" height="25" viewBox="0 0 25 25" fill="none" xmlns="http://www.w3.org/2000/svg">
<path d="M5.5 18.9142H9.74C9.87161 18.915 10.0021 18.8898 10.1239 18.84C10.2457 18.7903 10.3566 18.7169 10.45 18.6242L17.37 11.6942L20.21 8.91425C20.3037 8.82128 20.3781 8.71068 20.4289 8.58882C20.4797 8.46696 20.5058 8.33626 20.5058 8.20425C20.5058 8.07223 20.4797 7.94153 20.4289 7.81967C20.3781 7.69781 20.3037 7.58721 20.21 7.49425L15.97 3.20425C15.877 3.11052 15.7664 3.03612 15.6446 2.98535C15.5227 2.93459 15.392 2.90845 15.26 2.90845C15.128 2.90845 14.9973 2.93459 14.8754 2.98535C14.7536 3.03612 14.643 3.11052 14.55 3.20425L11.73 6.03425L4.79 12.9642C4.69732 13.0577 4.62399 13.1685 4.57423 13.2903C4.52446 13.4122 4.49924 13.5426 4.5 13.6742V17.9142C4.5 18.1795 4.60536 18.4338 4.79289 18.6214C4.98043 18.8089 5.23478 18.9142 5.5 18.9142ZM15.26 5.32425L18.09 8.15425L16.67 9.57425L13.84 6.74425L15.26 5.32425ZM6.5 14.0842L12.43 8.15425L15.26 10.9842L9.33 16.9142H6.5V14.0842ZM21.5 20.9142H3.5C3.23478 20.9142 2.98043 21.0196 2.79289 21.2071C2.60536 21.3947 2.5 21.649 2.5 21.9142C2.5 22.1795 2.60536 22.4338 2.79289 22.6214C2.98043 22.8089 3.23478 22.9142 3.5 22.9142H21.5C21.7652 22.9142 22.0196 22.8089 22.2071 22.6214C22.3946 22.4338 22.5 22.1795 22.5 21.9142C22.5 21.649 22.3946 21.3947 22.2071 21.2071C22.0196 21.0196 21.7652 20.9142 21.5 20.9142Z" fill="#375297"/>
</svg>
