<svg width="25" height="25" viewBox="0 0 25 25" fill="none" xmlns="http://www.w3.org/2000/svg">
<path d="M11.5 13.3125C11.3022 13.3125 11.1089 13.3711 10.9444 13.481C10.78 13.5909 10.6518 13.7471 10.5761 13.9298C10.5004 14.1125 10.4806 14.3136 10.5192 14.5076C10.5578 14.7016 10.653 14.8798 10.7929 15.0196C10.9327 15.1595 11.1109 15.2547 11.3049 15.2933C11.4989 15.3319 11.7 15.3121 11.8827 15.2364C12.0654 15.1607 12.2216 15.0325 12.3315 14.8681C12.4414 14.7036 12.5 14.5103 12.5 14.3125C12.5 14.0473 12.3946 13.7929 12.2071 13.6054C12.0196 13.4179 11.7652 13.3125 11.5 13.3125ZM7.5 13.3125C7.30222 13.3125 7.10888 13.3711 6.94443 13.481C6.77998 13.5909 6.65181 13.7471 6.57612 13.9298C6.50043 14.1125 6.48063 14.3136 6.51921 14.5076C6.5578 14.7016 6.65304 14.8798 6.79289 15.0196C6.93275 15.1595 7.11093 15.2547 7.30491 15.2933C7.49889 15.3319 7.69996 15.3121 7.88268 15.2364C8.06541 15.1607 8.22159 15.0325 8.33147 14.8681C8.44135 14.7036 8.5 14.5103 8.5 14.3125C8.5 14.0473 8.39464 13.7929 8.20711 13.6054C8.01957 13.4179 7.76522 13.3125 7.5 13.3125ZM22.5 4.3125C22.5 3.51685 22.1839 2.75379 21.6213 2.19118C21.0587 1.62857 20.2956 1.3125 19.5 1.3125H5.5C4.70435 1.3125 3.94129 1.62857 3.37868 2.19118C2.81607 2.75379 2.5 3.51685 2.5 4.3125V8.3125C2.50441 9.05255 2.78221 9.76486 3.28 10.3125C2.78221 10.8601 2.50441 11.5724 2.5 12.3125V16.3125C2.5 17.1081 2.81607 17.8712 3.37868 18.4338C3.94129 18.9964 4.70435 19.3125 5.5 19.3125H11.5V21.3125H3.5C3.23478 21.3125 2.98043 21.4179 2.79289 21.6054C2.60536 21.7929 2.5 22.0473 2.5 22.3125C2.5 22.5777 2.60536 22.8321 2.79289 23.0196C2.98043 23.2071 3.23478 23.3125 3.5 23.3125H21.5C21.7652 23.3125 22.0196 23.2071 22.2071 23.0196C22.3946 22.8321 22.5 22.5777 22.5 22.3125C22.5 22.0473 22.3946 21.7929 22.2071 21.6054C22.0196 21.4179 21.7652 21.3125 21.5 21.3125H13.5V19.3125H19.5C20.2956 19.3125 21.0587 18.9964 21.6213 18.4338C22.1839 17.8712 22.5 17.1081 22.5 16.3125V12.3125C22.4956 11.5724 22.2178 10.8601 21.72 10.3125C22.2178 9.76486 22.4956 9.05255 22.5 8.3125V4.3125ZM20.5 16.3125C20.5 16.5777 20.3946 16.8321 20.2071 17.0196C20.0196 17.2071 19.7652 17.3125 19.5 17.3125H5.5C5.23478 17.3125 4.98043 17.2071 4.79289 17.0196C4.60536 16.8321 4.5 16.5777 4.5 16.3125V12.3125C4.5 12.0473 4.60536 11.7929 4.79289 11.6054C4.98043 11.4179 5.23478 11.3125 5.5 11.3125H19.5C19.7652 11.3125 20.0196 11.4179 20.2071 11.6054C20.3946 11.7929 20.5 12.0473 20.5 12.3125V16.3125ZM20.5 8.3125C20.5 8.57772 20.3946 8.83207 20.2071 9.01961C20.0196 9.20714 19.7652 9.3125 19.5 9.3125H5.5C5.23478 9.3125 4.98043 9.20714 4.79289 9.01961C4.60536 8.83207 4.5 8.57772 4.5 8.3125V4.3125C4.5 4.04728 4.60536 3.79293 4.79289 3.60539C4.98043 3.41786 5.23478 3.3125 5.5 3.3125H19.5C19.7652 3.3125 20.0196 3.41786 20.2071 3.60539C20.3946 3.79293 20.5 4.04728 20.5 4.3125V8.3125ZM11.5 5.3125C11.3022 5.3125 11.1089 5.37115 10.9444 5.48103C10.78 5.59091 10.6518 5.74709 10.5761 5.92982C10.5004 6.11254 10.4806 6.31361 10.5192 6.50759C10.5578 6.70157 10.653 6.87975 10.7929 7.01961C10.9327 7.15946 11.1109 7.2547 11.3049 7.29329C11.4989 7.33187 11.7 7.31207 11.8827 7.23638C12.0654 7.16069 12.2216 7.03252 12.3315 6.86807C12.4414 6.70362 12.5 6.51028 12.5 6.3125C12.5 6.04728 12.3946 5.79293 12.2071 5.60539C12.0196 5.41786 11.7652 5.3125 11.5 5.3125ZM7.5 5.3125C7.30222 5.3125 7.10888 5.37115 6.94443 5.48103C6.77998 5.59091 6.65181 5.74709 6.57612 5.92982C6.50043 6.11254 6.48063 6.31361 6.51921 6.50759C6.5578 6.70157 6.65304 6.87975 6.79289 7.01961C6.93275 7.15946 7.11093 7.2547 7.30491 7.29329C7.49889 7.33187 7.69996 7.31207 7.88268 7.23638C8.06541 7.16069 8.22159 7.03252 8.33147 6.86807C8.44135 6.70362 8.5 6.51028 8.5 6.3125C8.5 6.04728 8.39464 5.79293 8.20711 5.60539C8.01957 5.41786 7.76522 5.3125 7.5 5.3125Z" fill="#6a94d1"/>
</svg>
